<?xml version="1.0" encoding="UTF-8"?>
<svg width="24px" height="24px" viewBox="0 0 24 24" version="1.1" xmlns="http://www.w3.org/2000/svg" xmlns:xlink="http://www.w3.org/1999/xlink">
    <!-- Generator: Sketch 58 (84663) - https://sketch.com -->
    <title>weather-sun</title>
    <desc>Created with Sketch.</desc>
    <g id="Page-1" stroke="none" stroke-width="1" fill="none" fill-rule="evenodd">
        <g id="weather-sun" fill="#000000" fill-rule="nonzero">
            <path d="M12,19.5 C7.865,19.5 4.5,16.135 4.5,12 C4.5,7.865 7.865,4.5 12,4.5 C16.135,4.5 19.5,7.865 19.5,12 C19.5,16.135 16.135,19.5 12,19.5 Z M12,6 C8.692,6 6,8.692 6,12 C6,15.308 8.692,18 12,18 C15.308,18 18,15.308 18,12 C18,8.692 15.308,6 12,6 Z" id="Shape"></path>
            <path d="M12,3 C11.586,3 11.25,2.664 11.25,2.25 L11.25,0.75 C11.25,0.336 11.586,0 12,0 C12.414,0 12.75,0.336 12.75,0.75 L12.75,2.25 C12.75,2.664 12.414,3 12,3 Z" id="Path"></path>
            <path d="M18.894,5.856 C18.694,5.856 18.505,5.778 18.364,5.636 C18.222,5.494 18.144,5.306 18.144,5.106 C18.144,4.906 18.222,4.717 18.364,4.576 L19.425,3.515 C19.567,3.373 19.755,3.295 19.955,3.295 C20.155,3.295 20.344,3.373 20.485,3.515 C20.627,3.657 20.705,3.845 20.705,4.045 C20.705,4.245 20.627,4.434 20.485,4.575 L19.424,5.636 C19.283,5.778 19.094,5.856 18.894,5.856 Z" id="Path"></path>
            <path d="M21.75,12.75 C21.336,12.75 21,12.414 21,12 C21,11.586 21.336,11.25 21.75,11.25 L23.25,11.25 C23.664,11.25 24,11.586 24,12 C24,12.414 23.664,12.75 23.25,12.75 L21.75,12.75 Z" id="Path"></path>
            <path d="M19.955,20.705 C19.755,20.705 19.566,20.627 19.425,20.485 L18.364,19.424 C18.072,19.132 18.072,18.656 18.364,18.363 C18.506,18.221 18.694,18.143 18.894,18.143 C19.094,18.143 19.283,18.221 19.424,18.363 L20.485,19.424 C20.777,19.716 20.777,20.192 20.485,20.485 C20.344,20.627 20.155,20.705 19.955,20.705 Z" id="Path"></path>
            <path d="M12,24 C11.586,24 11.25,23.664 11.25,23.25 L11.25,21.75 C11.25,21.336 11.586,21 12,21 C12.414,21 12.75,21.336 12.75,21.75 L12.75,23.25 C12.75,23.664 12.414,24 12,24 Z" id="Path"></path>
            <path d="M4.045,20.705 C3.845,20.705 3.656,20.627 3.515,20.485 C3.373,20.343 3.295,20.155 3.295,19.955 C3.295,19.755 3.373,19.566 3.515,19.425 L4.576,18.364 C4.717,18.222 4.906,18.144 5.106,18.144 C5.306,18.144 5.495,18.222 5.636,18.364 C5.928,18.656 5.928,19.132 5.636,19.425 L4.575,20.486 C4.434,20.627 4.246,20.705 4.045,20.705 Z" id="Path"></path>
            <path d="M0.75,12.75 C0.336,12.75 0,12.414 0,12 C0,11.586 0.336,11.25 0.75,11.25 L2.25,11.25 C2.664,11.25 3,11.586 3,12 C3,12.414 2.664,12.75 2.25,12.75 L0.75,12.75 Z" id="Path"></path>
            <path d="M5.106,5.856 C4.906,5.856 4.717,5.778 4.576,5.636 L3.515,4.575 C3.373,4.434 3.295,4.245 3.295,4.045 C3.295,3.845 3.373,3.656 3.515,3.515 C3.656,3.373 3.845,3.295 4.045,3.295 C4.245,3.295 4.434,3.373 4.575,3.515 L5.636,4.576 C5.778,4.717 5.856,4.906 5.856,5.106 C5.856,5.306 5.778,5.495 5.636,5.636 C5.495,5.778 5.306,5.856 5.106,5.856 Z" id="Path"></path>
        </g>
    </g>
</svg>